<svg t="1564801487548" class="icon" viewBox="0 0 1024 1024" version="1.1" xmlns="http://www.w3.org/2000/svg" p-id="1520" width="200" height="200"><path d="M122.8 648.2c0 32.2 26.2 58.4 58.4 58.4h661.6c32.2 0 58.4-26.2 58.4-58.4v-194.6c0-32.2-26.2-58.4-58.4-58.4H181.2c-32.2 0-58.4 26.2-58.4 58.4v194.6z" fill="#FFFFFF" p-id="1521"></path><path d="M842.8 395.2h-39c32.2 0 58.4 26.2 58.4 58.4v194.6c0 32.2-26.2 58.4-58.4 58.4h39c32.2 0 58.4-26.2 58.4-58.4v-194.6c0-32.2-26.2-58.4-58.4-58.4zM181.2 706.6h39c-32.2 0-58.4-26.2-58.4-58.4v-194.6c0-32.2 26.2-58.4 58.4-58.4H181.2c-32.2 0-58.4 26.2-58.4 58.4v194.6c0 32.2 26.2 58.4 58.4 58.4z" fill="#E6E7E8" p-id="1522"></path><path d="M842.8 716.4H181.2c-37.6 0-68.2-30.6-68.2-68.2v-194.6c0-37.6 30.6-68.2 68.2-68.2h661.6c37.6 0 68.2 30.6 68.2 68.2v194.6c-0.2 37.6-30.6 68.2-68.2 68.2zM181.2 405c-26.8 0-48.6 21.8-48.6 48.6v194.6c0 26.8 21.8 48.6 48.6 48.6h661.6c26.8 0 48.6-21.8 48.6-48.6v-194.6c0-26.8-21.8-48.6-48.6-48.6H181.2z" fill="#402943" p-id="1523"></path><path d="M473 336.8h77.8v58.4h-77.8z" fill="#E6E7E8" p-id="1524"></path><path d="M531.4 337h19.4v58.4h-19.4z" fill="#BCBEC0" p-id="1525"></path><path d="M473 337h19.4v58.4h-19.4z" fill="#FFFFFF" p-id="1526"></path><path d="M551 405h-77.8c-5.4 0-9.8-4.4-9.8-9.8v-58.4c0-5.4 4.4-9.8 9.8-9.8h77.8c5.4 0 9.8 4.4 9.8 9.8v58.4c-0.2 5.4-4.6 9.8-9.8 9.8z m-68.2-19.4h58.4v-39h-58.4v39z" fill="#402943" p-id="1527"></path><path d="M473 366h78" fill="#E6E7E8" p-id="1528"></path><path d="M551 371h-77.8c-2.6 0-4.8-2.2-4.8-4.8s2.2-4.8 4.8-4.8h77.8c2.6 0 4.8 2.2 4.8 4.8s-2.2 4.8-4.8 4.8zM521.8 336.8h-19.4v-58.4c0-5.4 4.4-9.8 9.8-9.8h116.8c16 0 29.2-13 29.2-29.2 0-16-13-29.2-29.2-29.2H395.4c-26.8 0-48.6-21.8-48.6-48.6s21.8-48.6 48.6-48.6H590v19.4h-194.6c-16 0-29.2 13-29.2 29.2 0 16 13 29.2 29.2 29.2h233.6c26.8 0 48.6 21.8 48.6 48.6S655.8 288 629 288H522v48.8z" fill="#402943" p-id="1529"></path><path d="M220.2 453.6h39v39h-39z" fill="#E6E7E8" p-id="1530"></path><path d="M259 502.2H220c-5.4 0-9.8-4.4-9.8-9.8v-39c0-5.4 4.4-9.8 9.8-9.8h39c5.4 0 9.8 4.4 9.8 9.8v39c0 5.6-4.4 9.8-9.8 9.8z m-29.2-19.4h19.4v-19.4h-19.4v19.4z" fill="#402943" p-id="1531"></path><path d="M220.2 531.4h39v39h-39z" fill="#E6E7E8" p-id="1532"></path><path d="M259 580.2H220c-5.4 0-9.8-4.4-9.8-9.8v-39c0-5.4 4.4-9.8 9.8-9.8h39c5.4 0 9.8 4.4 9.8 9.8v39c0 5.4-4.4 9.8-9.8 9.8z m-29.2-19.6h19.4v-19.4h-19.4v19.4z" fill="#402943" p-id="1533"></path><path d="M220.2 609.4h39v39h-39z" fill="#E6E7E8" p-id="1534"></path><path d="M259 658H220c-5.4 0-9.8-4.4-9.8-9.8v-39c0-5.4 4.4-9.8 9.8-9.8h39c5.4 0 9.8 4.4 9.8 9.8v39c0 5.4-4.4 9.8-9.8 9.8z m-29.2-19.6h19.4v-19.4h-19.4v19.4z" fill="#402943" p-id="1535"></path><path d="M298 453.6h39v39H298z" fill="#E6E7E8" p-id="1536"></path><path d="M336.8 502.2H298c-5.4 0-9.8-4.4-9.8-9.8v-39c0-5.4 4.4-9.8 9.8-9.8h39c5.4 0 9.8 4.4 9.8 9.8v39c-0.2 5.6-4.6 9.8-10 9.8z m-29.2-19.4h19.4v-19.4h-19.4v19.4z" fill="#402943" p-id="1537"></path><path d="M298 531.4h39v39H298z" fill="#E6E7E8" p-id="1538"></path><path d="M336.8 580.2H298c-5.4 0-9.8-4.4-9.8-9.8v-39c0-5.4 4.4-9.8 9.8-9.8h39c5.4 0 9.8 4.4 9.8 9.8v39c-0.2 5.4-4.6 9.8-10 9.8z m-29.2-19.6h19.4v-19.4h-19.4v19.4z" fill="#402943" p-id="1539"></path><path d="M298 609.4h39v39H298z" fill="#E6E7E8" p-id="1540"></path><path d="M336.8 658H298c-5.4 0-9.8-4.4-9.8-9.8v-39c0-5.4 4.4-9.8 9.8-9.8h39c5.4 0 9.8 4.4 9.8 9.8v39c-0.2 5.4-4.6 9.8-10 9.8z m-29.2-19.6h19.4v-19.4h-19.4v19.4z" fill="#402943" p-id="1541"></path><path d="M375.8 453.6h39v39h-39z" fill="#E6E7E8" p-id="1542"></path><path d="M414.8 502.2h-39c-5.4 0-9.8-4.4-9.8-9.8v-39c0-5.4 4.4-9.8 9.8-9.8h39c5.4 0 9.8 4.4 9.8 9.8v39c-0.2 5.6-4.6 9.8-9.8 9.8z m-29.2-19.4h19.4v-19.4h-19.4v19.4z" fill="#402943" p-id="1543"></path><path d="M375.8 531.4h39v39h-39z" fill="#E6E7E8" p-id="1544"></path><path d="M414.8 580.2h-39c-5.4 0-9.8-4.4-9.8-9.8v-39c0-5.4 4.4-9.8 9.8-9.8h39c5.4 0 9.8 4.4 9.8 9.8v39c-0.2 5.4-4.6 9.8-9.8 9.8z m-29.2-19.6h19.4v-19.4h-19.4v19.4z" fill="#402943" p-id="1545"></path><path d="M375.8 609.4h272.4v39H375.8z" fill="#E6E7E8" p-id="1546"></path><path d="M648.2 658H375.8c-5.4 0-9.8-4.4-9.8-9.8v-39c0-5.4 4.4-9.8 9.8-9.8h272.4c5.4 0 9.8 4.4 9.8 9.8v39c0 5.4-4.4 9.8-9.8 9.8z m-262.6-19.6h253v-19.4H385.6v19.4z" fill="#402943" p-id="1547"></path><path d="M453.6 453.6h39v39h-39z" fill="#E6E7E8" p-id="1548"></path><path d="M492.6 502.2h-39c-5.4 0-9.8-4.4-9.8-9.8v-39c0-5.4 4.4-9.8 9.8-9.8h39c5.4 0 9.8 4.4 9.8 9.8v39c-0.2 5.6-4.4 9.8-9.8 9.8z m-29.2-19.4h19.4v-19.4h-19.4v19.4z" fill="#402943" p-id="1549"></path><path d="M453.6 531.4h39v39h-39z" fill="#E6E7E8" p-id="1550"></path><path d="M492.6 580.2h-39c-5.4 0-9.8-4.4-9.8-9.8v-39c0-5.4 4.4-9.8 9.8-9.8h39c5.4 0 9.8 4.4 9.8 9.8v39c-0.2 5.4-4.4 9.8-9.8 9.8z m-29.2-19.6h19.4v-19.4h-19.4v19.4z" fill="#402943" p-id="1551"></path><path d="M531.4 453.6h39v39h-39z" fill="#E6E7E8" p-id="1552"></path><path d="M570.4 502.2h-39c-5.4 0-9.8-4.4-9.8-9.8v-39c0-5.4 4.4-9.8 9.8-9.8h39c5.4 0 9.8 4.4 9.8 9.8v39c0 5.6-4.4 9.8-9.8 9.8z m-29.2-19.4h19.4v-19.4h-19.4v19.4z" fill="#402943" p-id="1553"></path><path d="M531.4 531.4h39v39h-39z" fill="#E6E7E8" p-id="1554"></path><path d="M570.4 580.2h-39c-5.4 0-9.8-4.4-9.8-9.8v-39c0-5.4 4.4-9.8 9.8-9.8h39c5.4 0 9.8 4.4 9.8 9.8v39c0 5.4-4.4 9.8-9.8 9.8z m-29.2-19.6h19.4v-19.4h-19.4v19.4z" fill="#402943" p-id="1555"></path><path d="M609.2 453.6h39v39h-39z" fill="#E6E7E8" p-id="1556"></path><path d="M648.2 502.2h-39c-5.4 0-9.8-4.4-9.8-9.8v-39c0-5.4 4.4-9.8 9.8-9.8h39c5.4 0 9.8 4.4 9.8 9.8v39c0 5.6-4.4 9.8-9.8 9.8z m-29.2-19.4h19.4v-19.4h-19.4v19.4z" fill="#402943" p-id="1557"></path><path d="M609.2 531.4h39v39h-39z" fill="#E6E7E8" p-id="1558"></path><path d="M648.2 580.2h-39c-5.4 0-9.8-4.4-9.8-9.8v-39c0-5.4 4.4-9.8 9.8-9.8h39c5.4 0 9.8 4.4 9.8 9.8v39c0 5.4-4.4 9.8-9.8 9.8z m-29.2-19.6h19.4v-19.4h-19.4v19.4z" fill="#402943" p-id="1559"></path><path d="M687.2 453.6h39v39h-39z" fill="#E6E7E8" p-id="1560"></path><path d="M726 502.2h-39c-5.4 0-9.8-4.4-9.8-9.8v-39c0-5.4 4.4-9.8 9.8-9.8H726c5.4 0 9.8 4.4 9.8 9.8v39c0 5.6-4.4 9.8-9.8 9.8z m-29.2-19.4h19.4v-19.4h-19.4v19.4z" fill="#402943" p-id="1561"></path><path d="M687.2 531.4h39v39h-39z" fill="#E6E7E8" p-id="1562"></path><path d="M726 580.2h-39c-5.4 0-9.8-4.4-9.8-9.8v-39c0-5.4 4.4-9.8 9.8-9.8H726c5.4 0 9.8 4.4 9.8 9.8v39c0 5.4-4.4 9.8-9.8 9.8z m-29.2-19.6h19.4v-19.4h-19.4v19.4z" fill="#402943" p-id="1563"></path><path d="M687.2 609.4h39v39h-39z" fill="#E6E7E8" p-id="1564"></path><path d="M726 658h-39c-5.4 0-9.8-4.4-9.8-9.8v-39c0-5.4 4.4-9.8 9.8-9.8H726c5.4 0 9.8 4.4 9.8 9.8v39c0 5.4-4.4 9.8-9.8 9.8z m-29.2-19.6h19.4v-19.4h-19.4v19.4z" fill="#402943" p-id="1565"></path><path d="M765 453.6H804v39h-39z" fill="#E6E7E8" p-id="1566"></path><path d="M803.8 502.2h-39c-5.4 0-9.8-4.4-9.8-9.8v-39c0-5.4 4.4-9.8 9.8-9.8h39c5.4 0 9.8 4.4 9.8 9.8v39c0 5.6-4.4 9.8-9.8 9.8z m-29.2-19.4h19.4v-19.4h-19.4v19.4z" fill="#402943" p-id="1567"></path><path d="M765 531.4H804v39h-39z" fill="#E6E7E8" p-id="1568"></path><path d="M803.8 580.2h-39c-5.4 0-9.8-4.4-9.8-9.8v-39c0-5.4 4.4-9.8 9.8-9.8h39c5.4 0 9.8 4.4 9.8 9.8v39c0 5.4-4.4 9.8-9.8 9.8z m-29.2-19.6h19.4v-19.4h-19.4v19.4z" fill="#402943" p-id="1569"></path><path d="M765 609.4H804v39h-39z" fill="#E6E7E8" p-id="1570"></path><path d="M803.8 658h-39c-5.4 0-9.8-4.4-9.8-9.8v-39c0-5.4 4.4-9.8 9.8-9.8h39c5.4 0 9.8 4.4 9.8 9.8v39c0 5.4-4.4 9.8-9.8 9.8z m-29.2-19.6h19.4v-19.4h-19.4v19.4z" fill="#402943" p-id="1571"></path><path d="M940 823.4v-39c21.4 0 39-17.4 39-39V541c0-16.2-13-29.2-29.2-29.2s-29.2 13-29.2 29.2c0-16.2-13-29.2-29.2-29.2s-29.2 13-29.2 29.2c0-16.2-13-29.2-29.2-29.2s-29.2 13-29.2 29.2c0-16.2-13-29.2-29.2-29.2s-29.2 13-29.2 29.2v29.2c-21.4 0-39 17.4-39 39v97.2c0 43 34.8 77.8 77.8 77.8v39H940z" fill="#FFFFFF" p-id="1572"></path><path d="M979 706.6c0 21.4-17.4 39-39 39v39h-155.6v-39c-43 0-77.8-34.8-77.8-77.8v-58.4 97.2c0 43 34.8 77.8 77.8 77.8v39H940v-39c21.4 0 39-17.4 39-39V541v165.6z" fill="#E6E7E8" p-id="1573"></path><path d="M940 833h-155.6c-5.4 0-9.8-4.4-9.8-9.8v-29.8c-43.8-4.8-77.8-42-77.8-87v-97.2c0-23.4 16.8-43.2 39-47.6v-20.4c0-21.4 17.4-39 39-39 11.6 0 22 5.2 29.2 13.2 7.2-8 17.6-13.2 29.2-13.2 11.6 0 22 5.2 29.2 13.2 0.6-0.6 1-1.2 1.6-1.8 7.4-7.4 17.2-11.4 27.6-11.4 11.6 0 22 5.2 29.2 13.2 0.6-0.6 1.2-1.2 1.6-1.8 7.4-7.4 17.2-11.4 27.6-11.4 21.4 0 39 17.4 39 39v204.4c0 23.4-16.8 43.2-39 47.6v30.2c-0.2 5.2-4.6 9.6-10 9.6z m-145.8-19.4h136.2v-29.2c0-5.4 4.4-9.8 9.8-9.8 16 0 29.2-13 29.2-29.2V541c0-10.8-8.8-19.4-19.4-19.4-5.2 0-10 2-13.8 5.8-3.6 3.6-5.6 8.6-5.6 13.8 0 5.4-4.4 9.8-9.8 9.8s-9.8-4.4-9.8-9.8c0-10.8-8.8-19.4-19.4-19.4-5.2 0-10 2-13.8 5.8-3.6 3.6-5.6 8.6-5.6 13.8 0 5.4-4.4 9.8-9.8 9.8s-9.8-4.4-9.8-9.8c0-10.8-8.8-19.4-19.4-19.4-10.8 0-19.4 8.8-19.4 19.4 0 5.4-4.4 9.8-9.8 9.8s-9.8-4.4-9.8-9.8c0-10.8-8.8-19.4-19.4-19.4-10.8 0-19.4 8.8-19.4 19.4v29.2c0 5.4-4.4 9.8-9.8 9.8-16 0-29.2 13-29.2 29.2v97.2c0 37.6 30.6 68 68.2 68 5.4 0 9.8 4.4 9.8 9.8v29z" fill="#402943" p-id="1574"></path><path d="M745.4 696.8c-5.4 0-9.8-4.4-9.8-9.8v-116.8c0-5.4 4.4-9.8 9.8-9.8s9.8 4.4 9.8 9.8v116.8c0 5.4-4.4 9.8-9.8 9.8zM803.8 580c-5.4 0-9.8-4.4-9.8-9.8v-29.2c0-5.4 4.4-9.8 9.8-9.8s9.8 4.4 9.8 9.8v29.2c0 5.6-4.4 9.8-9.8 9.8z" fill="#402943" p-id="1575"></path><path d="M862.2 580c-5.4 0-9.8-4.4-9.8-9.8v-29.2c0-5.4 4.4-9.8 9.8-9.8s9.8 4.4 9.8 9.8v29.2c0 5.6-4.4 9.8-9.8 9.8z" fill="#402943" p-id="1576"></path><path d="M920.6 580c-5.4 0-9.8-4.4-9.8-9.8v-29.2c0-5.4 4.4-9.8 9.8-9.8s9.8 4.4 9.8 9.8v29.2c0 5.6-4.4 9.8-9.8 9.8z" fill="#402943" p-id="1577"></path><path d="M765 823.4h194.6v77.8h-194.6z" fill="#59C3F0" p-id="1578"></path><path d="M920.6 823.4h39v77.8h-39z" fill="#21A0D6" p-id="1579"></path><path d="M764.958 901.262v-77.8h39v77.8z" fill="#96DCFA" p-id="1580"></path><path d="M959.6 910.8h-194.6c-5.4 0-9.8-4.4-9.8-9.8v-77.8c0-5.4 4.4-9.8 9.8-9.8h194.6c5.4 0 9.8 4.4 9.8 9.8v77.8c-0.2 5.6-4.4 9.8-9.8 9.8z m-185-19.4h175.2v-58.4h-175.2v58.4z" fill="#402943" p-id="1581"></path><path d="M84 823.4v-39c-21.4 0-39-17.4-39-39V541c0-16.2 13-29.2 29.2-29.2s29.2 13 29.2 29.2c0-16.2 13-29.2 29.2-29.2s29.2 13 29.2 29.2c0-16.2 13-29.2 29.2-29.2s29.2 13 29.2 29.2c0-16.2 13-29.2 29.2-29.2s29.2 13 29.2 29.2v29.2c21.4 0 39 17.4 39 39v97.2c0 43-34.8 77.8-77.8 77.8v39H84z" fill="#FFFFFF" p-id="1582"></path><path d="M45 706.6c0 21.4 17.4 39 39 39v39h155.6v-39c43 0 77.8-34.8 77.8-77.8v-58.4 97.2c0 43-34.8 77.8-77.8 77.8v39H84v-39c-21.4 0-39-17.4-39-39V541v165.6z" fill="#E6E7E8" p-id="1583"></path><path d="M239.6 833H84c-5.4 0-9.8-4.4-9.8-9.8v-30.2c-22.2-4.6-39-24.2-39-47.6V541c0-21.4 17.4-39 39-39 10.4 0 20.2 4 27.6 11.4 0.6 0.6 1.2 1.2 1.6 1.8 7.2-8 17.6-13.2 29.2-13.2 10.4 0 20.2 4 27.6 11.4 0.6 0.6 1.2 1.2 1.6 1.8 7.2-8 17.6-13.2 29.2-13.2 10.4 0 20.2 4 27.6 11.4 0.6 0.6 1.2 1.2 1.6 1.8 7.2-8 17.6-13.2 29.2-13.2 21.4 0 39 17.4 39 39v20.4c22.2 4.6 39 24.2 39 47.6v97.2c0 45-34.2 82.2-77.8 87v29.8c-0.2 5.6-4.6 10-10 10z m-146-19.4h136.2v-29.2c0-5.4 4.4-9.8 9.8-9.8 37.6 0 68.2-30.6 68.2-68.2v-97.2c0-16-13-29.2-29.2-29.2-5.4 0-9.8-4.4-9.8-9.8v-29.2c0-10.8-8.8-19.4-19.4-19.4-10.8 0-19.4 8.8-19.4 19.4 0 5.4-4.4 9.8-9.8 9.8s-9.8-4.4-9.8-9.8c0-5.2-2-10-5.6-13.8-3.6-3.6-8.6-5.8-13.8-5.8-10.8 0-19.4 8.8-19.4 19.4 0 5.4-4.4 9.8-9.8 9.8s-9.8-4.4-9.8-9.8c0-5.2-2-10-5.6-13.8-3.6-3.6-8.6-5.8-13.8-5.8-10.8 0-19.4 8.8-19.4 19.4 0 5.4-4.4 9.8-9.8 9.8s-9.8-4.4-9.8-9.8c0-5.2-2-10-5.6-13.8-3.6-3.6-8.6-5.8-13.8-5.8-10.8 0-19.4 8.8-19.4 19.4v204.4c0 16 13 29.2 29.2 29.2 5.4 0 9.8 4.4 9.8 9.8v29.8z" fill="#402943" p-id="1584"></path><path d="M278.6 696.8c-5.4 0-9.8-4.4-9.8-9.8v-116.8c0-5.4 4.4-9.8 9.8-9.8s9.8 4.4 9.8 9.8v116.8c-0.2 5.4-4.6 9.8-9.8 9.8zM220.2 580c-5.4 0-9.8-4.4-9.8-9.8v-29.2c0-5.4 4.4-9.8 9.8-9.8s9.8 4.4 9.8 9.8v29.2c-0.2 5.6-4.4 9.8-9.8 9.8z" fill="#402943" p-id="1585"></path><path d="M161.8 580c-5.4 0-9.8-4.4-9.8-9.8v-29.2c0-5.4 4.4-9.8 9.8-9.8s9.8 4.4 9.8 9.8v29.2c-0.2 5.6-4.4 9.8-9.8 9.8z" fill="#402943" p-id="1586"></path><path d="M103.4 580c-5.4 0-9.8-4.4-9.8-9.8v-29.2c0-5.4 4.4-9.8 9.8-9.8s9.8 4.4 9.8 9.8v29.2c0 5.6-4.4 9.8-9.8 9.8z" fill="#402943" p-id="1587"></path><path d="M259.11 901.086h-194.6v-77.8h194.6z" fill="#59C3F0" p-id="1588"></path><path d="M220.2 823.4h39v77.8h-39z" fill="#21A0D6" p-id="1589"></path><path d="M64.47 901.172v-77.8h39v77.8z" fill="#96DCFA" p-id="1590"></path><path d="M259 910.8H64.4c-5.4 0-9.8-4.4-9.8-9.8v-77.8c0-5.4 4.4-9.8 9.8-9.8h194.6c5.4 0 9.8 4.4 9.8 9.8v77.8c0 5.6-4.4 9.8-9.8 9.8z m-184.8-19.4h175.2v-58.4H74.2v58.4z" fill="#402943" p-id="1591"></path></svg>